<svg width="32" height="32" viewBox="0 0 32 32" fill="none" xmlns="http://www.w3.org/2000/svg">
<circle cx="16" cy="16" r="15.5" fill="white" stroke="#DCDCDC"/>
<path d="M10.4042 21.9283C10.2916 21.8166 10.2022 21.6837 10.1412 21.5373C10.0802 21.3909 10.0488 21.2339 10.0488 21.0752C10.0488 20.9166 10.0802 20.7596 10.1412 20.6132C10.2022 20.4667 10.2916 20.3339 10.4042 20.2222L20.6053 10.0332C20.8379 9.86122 21.1247 9.77897 21.4131 9.80151C21.7015 9.82405 21.972 9.94987 22.1751 10.1559C22.3782 10.3619 22.5001 10.6342 22.5186 10.9229C22.537 11.2116 22.4506 11.4972 22.2754 11.7273L12.1104 21.9283C11.9987 22.041 11.8658 22.1303 11.7194 22.1913C11.573 22.2523 11.4159 22.2837 11.2573 22.2837C11.0987 22.2837 10.9417 22.2523 10.7952 22.1913C10.6488 22.1303 10.5159 22.041 10.4042 21.9283Z" fill="#E4446A"/>
<path d="M9.91287 9.91239C10.138 9.6886 10.4425 9.56299 10.76 9.56299C11.0774 9.56299 11.3819 9.6886 11.607 9.91239L21.808 20.1014C22.0343 20.3276 22.1614 20.6345 22.1614 20.9545C22.1614 21.2744 22.0343 21.5813 21.808 21.8076C21.5818 22.0338 21.2749 22.1609 20.955 22.1609C20.635 22.1609 20.3281 22.0338 20.1019 21.8076L9.91287 11.6065C9.68909 11.3814 9.56348 11.0769 9.56348 10.7595C9.56348 10.442 9.68909 10.1375 9.91287 9.91239Z" fill="#E4446A"/>
</svg>
