<svg width="24" height="24" viewBox="0 0 24 24" fill="none" xmlns="http://www.w3.org/2000/svg">
<path d="M12.0001 2.82861C6.94255 2.82861 2.82861 6.94311 2.82861 12.0004C2.82861 17.0576 6.94255 21.1719 12.0001 21.1719C17.0574 21.1719 21.1716 17.0576 21.1716 12.0004C21.1716 6.94316 17.0574 2.82861 12.0001 2.82861ZM12.0001 19.7252C7.74055 19.7252 4.27532 16.2597 4.27532 12.0004C4.27532 7.74083 7.74055 4.2756 12.0001 4.2756C16.2597 4.2756 19.7249 7.74083 19.7249 12.0004C19.7249 16.2597 16.2597 19.7252 12.0001 19.7252Z" fill="white"/>
<path d="M16.3414 8.17325L10.4648 14.1607L7.55309 12.0522C7.18362 11.7846 6.66659 11.8673 6.39847 12.2368C6.13091 12.6068 6.21359 13.1235 6.58334 13.3914L10.0717 15.9172C10.2173 16.0228 10.3871 16.0743 10.5564 16.0743C10.7719 16.0743 10.986 15.9905 11.1464 15.8268L17.5214 9.33153C17.8413 9.00575 17.8366 8.48234 17.5103 8.16242C17.1851 7.84278 16.6614 7.84751 16.3414 8.17325Z" fill="white"/>
</svg>
