<svg width="202" height="21" viewBox="0 0 202 21" fill="none" xmlns="http://www.w3.org/2000/svg">
<path d="M19.4839 19.272V20H11.8139V19.272H13.1659C13.5992 19.272 13.8159 19.168 13.8159 18.96C13.8159 18.7173 13.6512 18.3447 13.3219 17.842L8.56391 10.38L6.1719 12.928V17.842C6.1719 18.414 6.24991 18.7953 6.40591 18.986C6.56191 19.1767 6.85657 19.272 7.2899 19.272H8.51191V20H0.685905V19.272H2.0379C2.47124 19.272 2.7659 19.1767 2.9219 18.986C3.0779 18.7953 3.1559 18.414 3.1559 17.842V3.412C3.1559 2.84 3.06924 2.45867 2.8959 2.268C2.7399 2.06 2.4539 1.956 2.0379 1.956H0.685905V1.228H8.6419V1.956H7.2899C6.8739 1.956 6.57924 2.06 6.40591 2.268C6.24991 2.45867 6.1719 2.84 6.1719 3.412V11.862L13.9459 3.698C14.3619 3.282 14.5699 2.90067 14.5699 2.554C14.5699 2.15533 14.2752 1.956 13.6859 1.956H12.4639V1.228H18.9379V1.956H18.1059C17.2392 1.956 16.2512 2.53667 15.1419 3.698L10.7479 8.274L16.8319 17.842C17.1786 18.3967 17.4906 18.778 17.7679 18.986C18.0626 19.1767 18.4092 19.272 18.8079 19.272H19.4839ZM37.9216 10.614C37.9216 13.474 37.1676 15.814 35.6596 17.634C34.1516 19.454 32.0629 20.364 29.3936 20.364C26.7069 20.364 24.6096 19.454 23.1016 17.634C21.6109 15.7967 20.8656 13.4567 20.8656 10.614C20.8656 7.78867 21.6109 5.45733 23.1016 3.62C24.6096 1.78267 26.7069 0.863998 29.3936 0.863998C32.0629 0.863998 34.1516 1.78267 35.6596 3.62C37.1676 5.44 37.9216 7.77133 37.9216 10.614ZM33.4236 17.166C34.3596 15.5193 34.8276 13.3353 34.8276 10.614C34.8276 7.89267 34.3596 5.71733 33.4236 4.088C32.5049 2.44133 31.1616 1.618 29.3936 1.618C27.6256 1.618 26.2736 2.44133 25.3376 4.088C24.4189 5.73467 23.9596 7.91 23.9596 10.614C23.9596 13.3353 24.4189 15.5193 25.3376 17.166C26.2736 18.8127 27.6256 19.636 29.3936 19.636C31.1616 19.636 32.5049 18.8127 33.4236 17.166ZM55.1657 12.746H55.8937L55.3477 20H40.6837V19.272H42.0617C42.495 19.272 42.7897 19.1767 42.9457 18.986C43.1017 18.7953 43.1797 18.414 43.1797 17.842V3.412C43.1797 2.84 43.093 2.45867 42.9197 2.268C42.7637 2.06 42.4777 1.956 42.0617 1.956H40.6837V1.228H48.7957V1.956H47.2877C46.8717 1.956 46.577 2.06 46.4037 2.268C46.2477 2.45867 46.1697 2.84 46.1697 3.412V17.842C46.1697 18.414 46.2477 18.7953 46.4037 18.986C46.5597 19.1767 46.8543 19.272 47.2877 19.272H51.3957C51.8983 19.272 52.2883 19.22 52.5657 19.116C52.8603 18.9947 53.1723 18.7433 53.5017 18.362C54.1777 17.582 54.7323 15.71 55.1657 12.746ZM73.3394 1.228V1.956H72.6114C72.1954 1.956 71.8228 2.09467 71.4934 2.372C71.1814 2.64933 70.8348 3.126 70.4534 3.802L65.6694 12.07V17.842C65.6694 18.414 65.7474 18.7953 65.9034 18.986C66.0594 19.1767 66.3454 19.272 66.7614 19.272H68.1394V20H60.1834V19.272H61.5354C61.9688 19.272 62.2634 19.1767 62.4194 18.986C62.5754 18.7953 62.6534 18.414 62.6534 17.842V12.07L57.4794 3.412C56.9074 2.44133 56.2574 1.956 55.5294 1.956H54.8014V1.228H62.5234V1.956H61.1194C60.5821 1.956 60.3134 2.12933 60.3134 2.476C60.3134 2.59733 60.4608 2.90933 60.7554 3.412L65.3314 10.978L69.4914 3.802C69.7341 3.40333 69.8554 3.05667 69.8554 2.762C69.8554 2.22467 69.6128 1.956 69.1274 1.956H67.8274V1.228H73.3394ZM89.9476 19.272V20H82.6416V19.272H84.0456C84.6349 19.272 84.9296 19.0813 84.9296 18.7C84.9296 18.5267 84.8516 18.2407 84.6956 17.842L83.2396 13.968H75.7776L74.5036 17.426C74.3476 17.7553 74.2696 18.0847 74.2696 18.414C74.2696 18.986 74.6336 19.272 75.3616 19.272H76.5056V20H70.9936V19.272H71.3316C72.3716 19.272 73.1169 18.6567 73.5676 17.426L79.8856 0.603999H81.2376L87.7116 17.842C88.0929 18.7953 88.6909 19.272 89.5056 19.272H89.9476ZM82.9016 13.084L79.4956 3.88L76.1156 13.084H82.9016ZM110.676 15.32H111.404C111.352 16.8453 110.928 18.0673 110.13 18.986C109.35 19.9047 108.38 20.364 107.218 20.364C106.022 20.364 104.792 19.7313 103.526 18.466C101.88 19.714 99.9383 20.338 97.7023 20.338C96.0209 20.338 94.6516 19.9133 93.5943 19.064C92.5196 18.1973 91.9823 16.9753 91.9823 15.398C91.9823 13.994 92.5196 12.824 93.5943 11.888C94.4263 11.16 95.5963 10.406 97.1043 9.626C96.0469 7.73667 95.5183 6.22 95.5183 5.076C95.5183 3.776 95.9949 2.72733 96.9483 1.93C97.9189 1.11533 99.2189 0.707999 100.848 0.707999C102.131 0.707999 103.154 1.01133 103.916 1.618C104.679 2.22467 105.06 3.1 105.06 4.244C105.06 5.45733 104.514 6.46267 103.422 7.26C102.538 7.90133 101.368 8.54267 99.9123 9.184C101.351 11.4027 102.98 13.682 104.8 16.022C105.407 15.2593 105.944 14.41 106.412 13.474C106.915 12.434 107.166 11.6107 107.166 11.004C107.166 10.3973 106.776 10.094 105.996 10.094H104.176V9.366H110.884V10.094H109.948C109.463 10.094 109.064 10.2153 108.752 10.458C108.458 10.7007 108.206 11.1167 107.998 11.706C107.288 13.6993 106.404 15.3373 105.346 16.62C106.542 18.0413 107.565 18.752 108.414 18.752C109.004 18.752 109.498 18.466 109.896 17.894C110.312 17.322 110.572 16.464 110.676 15.32ZM98.9763 19.454C100.224 19.454 101.507 18.9253 102.824 17.868C101.247 16.0827 99.4876 13.578 97.5463 10.354C95.4836 11.5847 94.4523 13.0147 94.4523 14.644C94.4523 15.9613 94.9116 17.0967 95.8303 18.05C96.7316 18.986 97.7803 19.454 98.9763 19.454ZM98.8203 2.346C98.2309 2.93533 97.9363 3.68933 97.9363 4.608C97.9363 5.52667 98.4216 6.80933 99.3923 8.456C100.744 7.71067 101.715 7.026 102.304 6.402C102.911 5.778 103.214 5.05 103.214 4.218C103.214 3.45533 102.998 2.80533 102.564 2.268C102.131 1.71333 101.594 1.436 100.952 1.436C100.138 1.436 99.4269 1.73933 98.8203 2.346ZM126.596 6.48C126.596 5.31867 126.214 4.27867 125.452 3.36C124.706 2.424 123.64 1.956 122.254 1.956H120.59C120.191 1.956 119.914 2.06 119.758 2.268C119.602 2.45867 119.524 2.84 119.524 3.412V11.082H122.254C123.467 11.082 124.49 10.6487 125.322 9.782C126.171 8.93267 126.596 7.832 126.596 6.48ZM129.612 6.48C129.612 8.144 129.014 9.45267 127.818 10.406C126.639 11.342 124.966 11.81 122.8 11.81H119.524V17.842C119.524 18.414 119.602 18.7953 119.758 18.986C119.914 19.1767 120.208 19.272 120.642 19.272H121.994V20H114.038V19.272H115.39C115.858 19.272 116.161 19.1507 116.3 18.908C116.438 18.648 116.508 18.0847 116.508 17.218V3.412C116.508 2.84 116.421 2.45867 116.248 2.268C116.092 2.06 115.806 1.956 115.39 1.956H114.038V1.228H122.8C124.914 1.228 126.578 1.70467 127.792 2.658C129.005 3.594 129.612 4.868 129.612 6.48ZM149.191 10.614C149.191 13.474 148.437 15.814 146.929 17.634C145.421 19.454 143.333 20.364 140.663 20.364C137.977 20.364 135.879 19.454 134.371 17.634C132.881 15.7967 132.135 13.4567 132.135 10.614C132.135 7.78867 132.881 5.45733 134.371 3.62C135.879 1.78267 137.977 0.863998 140.663 0.863998C143.333 0.863998 145.421 1.78267 146.929 3.62C148.437 5.44 149.191 7.77133 149.191 10.614ZM144.693 17.166C145.629 15.5193 146.097 13.3353 146.097 10.614C146.097 7.89267 145.629 5.71733 144.693 4.088C143.775 2.44133 142.431 1.618 140.663 1.618C138.895 1.618 137.543 2.44133 136.607 4.088C135.689 5.73467 135.229 7.91 135.229 10.614C135.229 13.3353 135.689 15.5193 136.607 17.166C137.543 18.8127 138.895 19.636 140.663 19.636C142.431 19.636 143.775 18.8127 144.693 17.166ZM166.436 12.746H167.164L166.618 20H151.954V19.272H153.332C153.765 19.272 154.06 19.1767 154.216 18.986C154.372 18.7953 154.45 18.414 154.45 17.842V3.412C154.45 2.84 154.363 2.45867 154.19 2.268C154.034 2.06 153.748 1.956 153.332 1.956H151.954V1.228H160.066V1.956H158.558C158.142 1.956 157.847 2.06 157.674 2.268C157.518 2.45867 157.44 2.84 157.44 3.412V17.842C157.44 18.414 157.518 18.7953 157.674 18.986C157.83 19.1767 158.124 19.272 158.558 19.272H162.666C163.168 19.272 163.558 19.22 163.836 19.116C164.13 18.9947 164.442 18.7433 164.772 18.362C165.448 17.582 166.002 15.71 166.436 12.746ZM184.609 1.228V1.956H183.881C183.465 1.956 183.093 2.09467 182.763 2.372C182.451 2.64933 182.105 3.126 181.723 3.802L176.939 12.07V17.842C176.939 18.414 177.017 18.7953 177.173 18.986C177.329 19.1767 177.615 19.272 178.031 19.272H179.409V20H171.453V19.272H172.805C173.239 19.272 173.533 19.1767 173.689 18.986C173.845 18.7953 173.923 18.414 173.923 17.842V12.07L168.749 3.412C168.177 2.44133 167.527 1.956 166.799 1.956H166.071V1.228H173.793V1.956H172.389C171.852 1.956 171.583 2.12933 171.583 2.476C171.583 2.59733 171.731 2.90933 172.025 3.412L176.601 10.978L180.761 3.802C181.004 3.40333 181.125 3.05667 181.125 2.762C181.125 2.22467 180.883 1.956 180.397 1.956H179.097V1.228H184.609ZM201.217 19.272V20H193.911V19.272H195.315C195.905 19.272 196.199 19.0813 196.199 18.7C196.199 18.5267 196.121 18.2407 195.965 17.842L194.509 13.968H187.047L185.773 17.426C185.617 17.7553 185.539 18.0847 185.539 18.414C185.539 18.986 185.903 19.272 186.631 19.272H187.775V20H182.263V19.272H182.601C183.641 19.272 184.387 18.6567 184.837 17.426L191.155 0.603999H192.507L198.981 17.842C199.363 18.7953 199.961 19.272 200.775 19.272H201.217ZM194.171 13.084L190.765 3.88L187.385 13.084H194.171Z" fill="#85558E"/>
</svg>
