<svg width="24" height="24" viewBox="0 0 24 24" fill="none" xmlns="http://www.w3.org/2000/svg">
<path fill-rule="evenodd" clip-rule="evenodd" d="M12 0C5.37258 0 0 5.37258 0 12C0 18.6274 5.37258 24 12 24C18.6274 24 24 18.6274 24 12C24 5.37258 18.6274 0 12 0ZM9.35945 5.63876C10.0421 5.6077 10.2603 5.6001 11.9984 5.6001H11.9964C13.7351 5.6001 13.9524 5.6077 14.6351 5.63876C15.3164 5.66997 15.7818 5.77783 16.1898 5.9361C16.6111 6.09943 16.9671 6.31811 17.3231 6.67411C17.6791 7.02985 17.8978 7.38692 18.0618 7.80785C18.2191 8.21479 18.3271 8.67986 18.3591 9.36121C18.3898 10.0439 18.3978 10.262 18.3978 12.0002C18.3978 13.7383 18.3898 13.9559 18.3591 14.6386C18.3271 15.3197 18.2191 15.7849 18.0618 16.1919C17.8978 16.6127 17.6791 16.9698 17.3231 17.3256C16.9675 17.6816 16.611 17.9008 16.1902 18.0642C15.783 18.2225 15.3174 18.3304 14.636 18.3616C13.9534 18.3926 13.7359 18.4002 11.9976 18.4002C10.2596 18.4002 10.0416 18.3926 9.35891 18.3616C8.67771 18.3304 8.2125 18.2225 7.8053 18.0642C7.38463 17.9008 7.02756 17.6816 6.67195 17.3256C6.31608 16.9698 6.09741 16.6127 5.93381 16.1918C5.77568 15.7849 5.66781 15.3198 5.63648 14.6385C5.60554 13.9558 5.59781 13.7383 5.59781 12.0002C5.59781 10.262 5.60581 10.0437 5.63634 9.36107C5.66701 8.67999 5.77501 8.21479 5.93368 7.80772C6.09768 7.38692 6.31635 7.02985 6.67235 6.67411C7.02809 6.31824 7.38516 6.09957 7.8061 5.9361C8.21304 5.77783 8.67811 5.66997 9.35945 5.63876Z" fill="#BA9CC0"/>
<path fill-rule="evenodd" clip-rule="evenodd" d="M11.4255 6.75307C11.537 6.75289 11.6569 6.75294 11.7863 6.75301L11.9997 6.75307C13.7085 6.75307 13.911 6.7592 14.5858 6.78986C15.2098 6.8184 15.5485 6.92267 15.7741 7.01027C16.0728 7.12627 16.2857 7.26494 16.5096 7.48894C16.7336 7.71294 16.8722 7.92628 16.9885 8.22495C17.0761 8.45028 17.1805 8.78896 17.2089 9.41296C17.2396 10.0876 17.2462 10.2903 17.2462 11.9983C17.2462 13.7063 17.2396 13.909 17.2089 14.5837C17.1804 15.2077 17.0761 15.5464 16.9885 15.7717C16.8725 16.0704 16.7336 16.283 16.5096 16.5069C16.2856 16.7309 16.0729 16.8696 15.7741 16.9856C15.5488 17.0736 15.2098 17.1776 14.5858 17.2061C13.9111 17.2368 13.7085 17.2434 11.9997 17.2434C10.2907 17.2434 10.0882 17.2368 9.41349 17.2061C8.78948 17.1773 8.45081 17.073 8.22508 16.9854C7.92641 16.8694 7.71307 16.7308 7.48907 16.5068C7.26507 16.2828 7.1264 16.07 7.01013 15.7712C6.92253 15.5458 6.81813 15.2072 6.78973 14.5831C6.75906 13.9085 6.75293 13.7058 6.75293 11.9967C6.75293 10.2876 6.75906 10.086 6.78973 9.41136C6.81826 8.78735 6.92253 8.44868 7.01013 8.22308C7.12613 7.92441 7.26507 7.71107 7.48907 7.48708C7.71307 7.26307 7.92641 7.1244 8.22508 7.00813C8.45068 6.92014 8.78948 6.81613 9.41349 6.78747C10.0039 6.7608 10.2327 6.7528 11.4255 6.75146V6.75307ZM15.4183 7.81594C14.9943 7.81594 14.6503 8.15955 14.6503 8.58368C14.6503 9.00768 14.9943 9.35169 15.4183 9.35169C15.8423 9.35169 16.1863 9.00768 16.1863 8.58368C16.1863 8.15968 15.8423 7.81567 15.4183 7.81567V7.81594ZM8.71396 12.0001C8.71396 10.185 10.1855 8.71345 12.0005 8.71338C13.8156 8.71338 15.2868 10.185 15.2868 12.0001C15.2868 13.8152 13.8157 15.2861 12.0007 15.2861C10.1856 15.2861 8.71396 13.8152 8.71396 12.0001Z" fill="#BA9CC0"/>
<path d="M12.0005 9.86719C13.1787 9.86719 14.1339 10.8223 14.1339 12.0005C14.1339 13.1787 13.1787 14.1339 12.0005 14.1339C10.8223 14.1339 9.86719 13.1787 9.86719 12.0005C9.86719 10.8223 10.8223 9.86719 12.0005 9.86719Z" fill="#BA9CC0"/>
</svg>
