<svg width="20" height="16" viewBox="0 0 20 16" fill="none" xmlns="http://www.w3.org/2000/svg">
<path d="M16.3636 3.55556H16C15.6364 3.55556 15.3636 3.37778 15.1818 3.02222L14.0909 0.977778C13.8182 0.355555 13.1818 0 12.4545 0H7.45455C6.81818 0 6.18182 0.355555 5.81818 0.977778L4.81818 3.02222C4.63636 3.37778 4.36364 3.55556 4 3.55556H3.63636C1.63636 3.55556 0 5.15556 0 7.11111V12.4444C0 14.4 1.63636 16 3.63636 16H16.3636C18.3636 16 20 14.4 20 12.4444V7.11111C20 5.15556 18.3636 3.55556 16.3636 3.55556ZM10 12.4444C8 12.4444 6.36364 10.8444 6.36364 8.88889C6.36364 6.93333 8 5.33333 10 5.33333C12 5.33333 13.6364 6.93333 13.6364 8.88889C13.6364 10.8444 12 12.4444 10 12.4444Z" fill="white"/>
</svg>
