<svg width="24" height="25" viewBox="0 0 24 25" fill="none" xmlns="http://www.w3.org/2000/svg">
<path fill-rule="evenodd" clip-rule="evenodd" d="M12 0.793945C5.37258 0.793945 0 6.16653 0 12.7939C0 19.4214 5.37258 24.7939 12 24.7939C18.6274 24.7939 24 19.4214 24 12.7939C24 6.16653 18.6274 0.793945 12 0.793945ZM17.9801 8.85513C18.4424 8.85513 18.5468 9.10329 18.4424 9.4445C18.2795 10.2265 16.9266 12.3009 16.5076 12.9434C16.428 13.0655 16.3821 13.1359 16.3845 13.1359C16.2204 13.415 16.1608 13.5391 16.3845 13.8493C16.4653 13.964 16.6368 14.139 16.8327 14.339C17.0343 14.5447 17.2618 14.7769 17.4432 14.997C18.0994 15.7725 18.6064 16.424 18.7406 16.8737C18.8599 17.3235 18.6511 17.5562 18.2038 17.5562H16.6678C16.2607 17.5562 16.0509 17.3131 15.6037 16.7949C15.412 16.5727 15.1766 16.3 14.8634 15.9742C13.9537 15.0591 13.5511 14.935 13.3274 14.935C13.0142 14.935 12.9248 15.0126 12.9248 15.4779V16.9203C12.9248 17.308 12.8055 17.5407 11.8212 17.5407C10.1958 17.5407 8.39139 16.517 7.12383 14.6093C5.21504 11.8175 4.69311 9.70817 4.69311 9.28941C4.69311 9.05676 4.76767 8.83962 5.21504 8.83962H6.76594C7.15366 8.83962 7.30278 9.01023 7.45191 9.46002C8.21244 11.74 9.48 13.7407 10.0019 13.7407C10.1958 13.7407 10.2853 13.6477 10.2853 13.1359V10.7784C10.2485 10.1083 10.0242 9.8163 9.85786 9.5998C9.75471 9.46553 9.67386 9.36028 9.67386 9.21186C9.67386 9.02574 9.82298 8.83962 10.0616 8.83962H12.4774C12.8055 8.83962 12.9248 9.02574 12.9248 9.429V12.6085C12.9248 12.9497 13.059 13.0738 13.1634 13.0738C13.3572 13.0738 13.5213 12.9497 13.8792 12.5775C14.9827 11.2902 15.773 9.30492 15.773 9.30492C15.8774 9.07227 16.0564 8.85513 16.4441 8.85513H17.9801Z" fill="#95669E" fill-opacity="0.65"/>
</svg>
