<svg width="64" height="64" viewBox="0 0 64 64" fill="none" xmlns="http://www.w3.org/2000/svg">
<circle cx="32" cy="32" r="32" fill="#684FA3" fill-opacity="0.18"/>
<path fill-rule="evenodd" clip-rule="evenodd" d="M25.3691 44.4082H36.1455H40.2872C41.2037 44.4082 41.9468 43.6724 41.9468 42.7504C41.9468 41.8349 41.205 41.0927 40.2872 41.0927H38.6312V39.9875H42.507C43.4184 39.9875 44.1571 39.2517 44.1571 38.3297C44.1571 37.4141 43.4234 36.6719 42.507 36.6719H39.7364V35.5668H43.6122C44.5235 35.5668 45.2623 34.8309 45.2623 33.909C45.2623 32.9934 44.5286 32.2512 43.6122 32.2512H40.8416V31.146H44.7174C45.6287 31.146 46.3675 30.4102 46.3675 29.4883C46.3675 28.5727 45.6338 27.8305 44.7174 27.8305H36.7524C38.0795 21.752 37.6935 15.6735 34.2105 15.6735C31.0377 15.6735 33.0362 20.4548 31.3051 23.7427C29.574 27.0307 25.9217 27.8305 25.9217 27.8305H25.3691V44.4082ZM19.8409 27.8305C18.6214 27.8305 17.6328 28.8179 17.6328 30.0319V42.2068C17.6328 43.4226 18.6256 44.4082 19.8409 44.4082H24.2639V27.8305H19.8409ZM20.9484 42.1978C21.5587 42.1978 22.0535 41.703 22.0535 41.0927C22.0535 40.4823 21.5587 39.9875 20.9484 39.9875C20.338 39.9875 19.8432 40.4823 19.8432 41.0927C19.8432 41.703 20.338 42.1978 20.9484 42.1978Z" fill="#684FA3"/>
</svg>
