<svg width="17" height="18" viewBox="0 0 17 18" fill="none" xmlns="http://www.w3.org/2000/svg">
<path fill-rule="evenodd" clip-rule="evenodd" d="M8.10136 0.849609C3.6271 0.849609 0 4.47671 0 8.95097C0 13.4252 3.6271 17.0523 8.10136 17.0523C12.5756 17.0523 16.2027 13.4252 16.2027 8.95097C16.2027 4.47671 12.5756 0.849609 8.10136 0.849609ZM12.1392 6.29257C12.4513 6.29257 12.5218 6.46011 12.4513 6.69047C12.3413 7.21841 11.428 8.61887 11.1451 9.05262C11.0914 9.13504 11.0604 9.18255 11.062 9.18255C10.9513 9.37103 10.911 9.4548 11.062 9.66422C11.1166 9.74164 11.2324 9.85979 11.3647 9.99481C11.5007 10.1337 11.6543 10.2904 11.7768 10.4391C12.2198 10.9626 12.5621 11.4024 12.6527 11.706C12.7332 12.0097 12.5923 12.1668 12.2902 12.1668H11.2533C10.9785 12.1668 10.8368 12.0026 10.5349 11.6528C10.4055 11.5028 10.2466 11.3187 10.0351 11.0987C9.42099 10.4809 9.14916 10.3972 8.99815 10.3972C8.78673 10.3972 8.72632 10.4495 8.72632 10.7637V11.7375C8.72632 11.9992 8.64578 12.1563 7.98132 12.1563C6.88396 12.1563 5.66578 11.4652 4.81004 10.1773C3.52139 8.29252 3.16902 6.86847 3.16902 6.58576C3.16902 6.42869 3.21936 6.2821 3.52138 6.2821H4.56841C4.83017 6.2821 4.93085 6.39728 5.03152 6.70094C5.54497 8.24017 6.40071 9.59092 6.75308 9.59092C6.88396 9.59092 6.94436 9.52809 6.94436 9.18255V7.59097C6.91951 7.13858 6.76809 6.94147 6.65581 6.79531C6.58617 6.70466 6.53159 6.63361 6.53159 6.5334C6.53159 6.40775 6.63227 6.2821 6.79335 6.2821H8.4243C8.64578 6.2821 8.72632 6.40775 8.72632 6.68V8.82654C8.72632 9.0569 8.81693 9.14067 8.88741 9.14067C9.01828 9.14067 9.12903 9.0569 9.37065 8.8056C10.1157 7.93651 10.6492 6.59623 10.6492 6.59623C10.7197 6.43916 10.8405 6.29257 11.1023 6.29257H12.1392Z" fill="#A54CB6"/>
</svg>
