<svg width="17" height="17" viewBox="0 0 17 17" fill="none" xmlns="http://www.w3.org/2000/svg">
<path fill-rule="evenodd" clip-rule="evenodd" d="M8.03128 0.9375C3.59573 0.9375 0 4.53323 0 8.96878C0 13.4043 3.59573 17.0001 8.03128 17.0001C12.4668 17.0001 16.0626 13.4043 16.0626 8.96878C16.0626 4.53323 12.4668 0.9375 8.03128 0.9375ZM6.26549 4.71143C6.72221 4.69064 6.86824 4.68555 8.03034 4.68555C9.19399 4.68555 9.33945 4.69064 9.79635 4.71143C10.2523 4.7323 10.5638 4.8045 10.8369 4.91043C11.1188 5.01974 11.3571 5.16608 11.5954 5.40436C11.8336 5.64243 11.98 5.88141 12.0897 6.16315C12.195 6.43549 12.2673 6.74677 12.2887 7.20276C12.3093 7.65964 12.3146 7.80563 12.3146 8.96893C12.3146 10.1322 12.3093 10.2779 12.2887 10.7348C12.2673 11.1906 12.195 11.502 12.0897 11.7744C11.98 12.056 11.8336 12.295 11.5954 12.5331C11.3574 12.7714 11.1188 12.9181 10.8371 13.0275C10.5646 13.1334 10.253 13.2056 9.79697 13.2265C9.34008 13.2473 9.19453 13.2523 8.03114 13.2523C6.86793 13.2523 6.72203 13.2473 6.26513 13.2265C5.80922 13.2056 5.49787 13.1334 5.22534 13.0275C4.9438 12.9181 4.70482 12.7714 4.46682 12.5331C4.22865 12.295 4.0823 12.056 3.9728 11.7743C3.86697 11.502 3.79477 11.1907 3.7738 10.7347C3.7531 10.2778 3.74792 10.1322 3.74792 8.96893C3.74792 7.80563 3.75328 7.65958 3.77371 7.20267C3.79424 6.74686 3.86652 6.43549 3.97271 6.16306C4.08248 5.88141 4.22883 5.64243 4.46709 5.40436C4.70517 5.16617 4.94415 5.01984 5.22587 4.91043C5.49823 4.8045 5.80949 4.7323 6.26549 4.71143Z" fill="#A54CB6"/>
<path fill-rule="evenodd" clip-rule="evenodd" d="M7.64457 5.45712C7.75861 5.45694 7.88587 5.45712 8.02883 5.45712C9.17249 5.45712 9.30804 5.46124 9.75967 5.48175C10.1773 5.50085 10.404 5.57065 10.555 5.62927C10.7548 5.70691 10.8974 5.79971 11.0472 5.94962C11.1971 6.09955 11.2899 6.24234 11.3677 6.44223C11.4264 6.59302 11.4962 6.8197 11.5152 7.23734C11.5358 7.68887 11.5402 7.82449 11.5402 8.96762C11.5402 10.1108 11.5358 10.2464 11.5152 10.6979C11.4961 11.1156 11.4264 11.3423 11.3677 11.493C11.2901 11.6929 11.1971 11.8353 11.0472 11.9851C10.8973 12.135 10.7549 12.2278 10.555 12.3055C10.4041 12.3644 10.1773 12.434 9.75967 12.4531C9.30813 12.4736 9.17249 12.4781 8.02883 12.4781C6.88507 12.4781 6.74952 12.4736 6.29798 12.4531C5.88035 12.4338 5.65368 12.364 5.5026 12.3054C5.30271 12.2278 5.15993 12.1349 5.01001 11.985C4.86009 11.8351 4.76729 11.6927 4.68947 11.4927C4.63084 11.3419 4.56097 11.1152 4.54196 10.6976C4.52144 10.2461 4.51733 10.1104 4.51733 8.96655C4.51733 7.82272 4.52144 7.68781 4.54196 7.23624C4.56106 6.81863 4.63084 6.59195 4.68947 6.44098C4.76711 6.24109 4.86009 6.0983 5.01001 5.94836C5.15993 5.79846 5.30271 5.70566 5.5026 5.62784C5.65359 5.56894 5.88035 5.49933 6.29798 5.48016C6.69312 5.46231 6.84625 5.45694 7.64457 5.45605V5.45712ZM10.3167 6.16913C10.0329 6.16913 9.80267 6.39908 9.80267 6.68295C9.80267 6.96674 10.0329 7.19696 10.3167 7.19696C10.6005 7.19696 10.8307 6.96674 10.8307 6.68295C10.8307 6.39917 10.6005 6.16895 10.3167 6.16913ZM5.8291 8.97021C5.8291 7.75546 6.81397 6.77057 8.02871 6.77051C9.2435 6.77051 10.2281 7.75543 10.2281 8.97021C10.2281 10.185 9.24359 11.1695 8.0288 11.1695C6.81401 11.1695 5.8291 10.185 5.8291 8.97021Z" fill="#A54CB6"/>
<path d="M8.03131 7.54102C8.81982 7.54102 9.45911 8.18022 9.45911 8.96881C9.45911 9.75732 8.81982 10.3966 8.03131 10.3966C7.24272 10.3966 6.60352 9.75732 6.60352 8.96881C6.60352 8.18022 7.24272 7.54102 8.03131 7.54102Z" fill="#A54CB6"/>
</svg>
