<svg width="32" height="26" viewBox="0 0 32 26" fill="none" xmlns="http://www.w3.org/2000/svg">
<path d="M31.4139 6.14181L26.3339 0.635098C25.9589 0.228679 25.4489 0 24.92 0H7.081C6.551 0 6.042 0.228679 5.667 0.635098L0.587014 6.14181C0.194015 6.56665 -0.00198484 7.12697 1.51516e-05 7.68837C0.00301514 8.19775 0.171015 8.70604 0.506014 9.11463L14.505 25.2717C14.885 25.7356 15.429 26 16 26C16.571 26 17.115 25.7356 17.494 25.2717L31.4939 9.11463C31.8359 8.69737 32.0039 8.17499 31.9999 7.65369C31.9959 7.10529 31.7989 6.55907 31.4139 6.14181ZM18.219 7.58649H13.78L16 5.58258L18.219 7.58649ZM16.782 4.87703L19.514 2.40817L21.532 4.59525L19 6.88095L16.782 4.87703ZM13 6.88095L10.468 4.59525L12.486 2.40817L15.219 4.87703L13 6.88095ZM18.49 8.67028L16 22.1667L13.51 8.67028H18.49ZM19.51 8.67028H24.416L17.057 21.9672L19.51 8.67028ZM19.779 7.58649L22.242 5.36365L24.293 7.58649H19.779ZM20.707 2.16757H24.219L22.303 3.89837L20.707 2.16757ZM16 4.17257L13.78 2.16757H18.218L16 4.17257ZM9.69599 3.89837L7.77999 2.16757H11.293L9.69599 3.89837ZM9.75799 5.36365L12.22 7.58649H7.707L9.75799 5.36365ZM12.49 8.67028L14.943 21.9672L7.583 8.67028H12.49ZM12.704 20.0262L2.86401 8.67028H6.418L12.704 20.0262ZM25.5819 8.67028H29.1369L19.295 20.0283L25.5819 8.67028ZM25.7069 7.58649L23.014 4.66786L25.3109 2.59241L29.9179 7.58649H25.7069ZM6.686 2.59025L8.98699 4.66786L6.293 7.58649H2.00601L6.686 2.59025Z" fill="white"/>
</svg>
