<svg width="16" height="15" viewBox="0 0 16 15" fill="none" xmlns="http://www.w3.org/2000/svg">
<path d="M14.9316 13.5276C15.5715 12.977 15.954 12.2113 15.9957 11.3973C16.0374 10.5832 15.7351 9.78656 15.1545 9.18077L14.6573 8.71389C14.0498 8.19019 13.2531 7.90296 12.4285 7.91044C11.6039 7.91791 10.8132 8.21953 10.2167 8.75414C9.51906 8.31365 8.86492 7.81525 8.26217 7.26495C7.67463 6.70166 7.1384 6.09312 6.65911 5.44572C7.23575 4.88681 7.56313 4.14211 7.57429 3.364C7.58544 2.58589 7.27952 1.83318 6.71912 1.2599L6.22191 0.793018C5.57677 0.247797 4.72841 -0.0361037 3.86146 0.00309238C2.99451 0.0422894 2.17913 0.401411 1.59276 1.00231L0.735505 1.80728C0.387615 2.14024 0.149863 2.56068 0.0509801 3.0178C-0.0479029 3.47492 -0.00368448 3.94914 0.178292 4.38317C1.22169 6.72796 2.7317 8.86439 4.62742 10.678C6.56867 12.452 8.85268 13.8618 11.3568 14.8316C11.8191 15.0025 12.3241 15.044 12.8109 14.9512C13.2977 14.8583 13.7455 14.6351 14.1 14.3084L14.9316 13.5276ZM12.0084 13.3424C11.6997 13.2217 11.2625 13.0446 10.7396 12.8031C10.5682 12.7226 10.3882 12.626 10.191 12.5294C8.59534 11.7338 7.12891 10.7281 5.83615 9.543C5.13747 8.87394 4.49812 8.15244 3.92448 7.38569C3.58158 6.93491 3.28154 6.48413 3.01579 6.06555C2.75004 5.64697 2.55288 5.26058 2.36428 4.93859C2.10711 4.44756 1.91851 4.03703 1.78992 3.74724C1.73297 3.61122 1.71966 3.46251 1.75165 3.31946C1.78364 3.17642 1.85953 3.0453 1.96995 2.94228L2.8272 2.13731C3.09276 1.8389 3.47266 1.65052 3.88486 1.61287C4.29706 1.57522 4.7085 1.69131 5.03033 1.93607L5.52754 2.40295C5.78721 2.70615 5.90939 3.09312 5.86768 3.48023C5.82598 3.86734 5.62373 4.22349 5.30465 4.47171L4.4474 5.23643C4.696 5.63087 4.9789 6.0414 5.30465 6.44388C5.81349 7.14219 6.38724 7.79677 7.01915 8.39995C8.05566 9.33027 9.20682 10.141 10.4482 10.8149L11.2368 10.0743C11.5012 9.77466 11.8805 9.58475 12.2927 9.54559C12.705 9.50643 13.1171 9.62116 13.44 9.86499L13.9372 10.3319C14.1978 10.6341 14.3215 11.0204 14.2814 11.4075C14.2413 11.7945 14.0407 12.1513 13.7229 12.4006L12.8656 13.2056C12.7522 13.3039 12.6108 13.3691 12.4586 13.3934C12.3064 13.4177 12.15 13.4 12.0084 13.3424Z" fill="#CACACA"/>
</svg>
