<svg width="18" height="18" viewBox="0 0 18 18" fill="none" xmlns="http://www.w3.org/2000/svg">
<path fill-rule="evenodd" clip-rule="evenodd" d="M9 1.63637C7.54361 1.63637 6.11992 2.06824 4.90898 2.87736C3.69804 3.68649 2.75422 4.83653 2.19689 6.18206C1.63955 7.52759 1.49373 9.00817 1.77785 10.4366C2.06198 11.865 2.7633 13.1771 3.79312 14.2069C4.82294 15.2367 6.13502 15.938 7.56342 16.2221C8.99183 16.5063 10.4724 16.3605 11.8179 15.8031C13.1635 15.2458 14.3135 14.302 15.1226 13.091C15.9318 11.8801 16.3636 10.4564 16.3636 9C16.3636 7.04704 15.5878 5.17408 14.2069 3.79313C12.8259 2.41218 10.953 1.63637 9 1.63637ZM0 9C0 7.21997 0.527841 5.47991 1.51677 3.99987C2.50571 2.51983 3.91131 1.36628 5.55585 0.685088C7.20038 0.00389959 9.00998 -0.17433 10.7558 0.172936C12.5016 0.520203 14.1053 1.37737 15.364 2.63604C16.6226 3.89472 17.4798 5.49836 17.8271 7.24419C18.1743 8.99002 17.9961 10.7996 17.3149 12.4442C16.6337 14.0887 15.4802 15.4943 14.0001 16.4832C12.5201 17.4722 10.78 18 9 18C6.61305 18 4.32386 17.0518 2.63604 15.364C0.948211 13.6761 0 11.3869 0 9Z" fill="#F96F90"/>
<path d="M5.00715 12.854C4.93047 12.7779 4.8696 12.6874 4.82806 12.5877C4.78652 12.488 4.76514 12.3811 4.76514 12.2731C4.76514 12.1651 4.78652 12.0581 4.82806 11.9584C4.8696 11.8587 4.93047 11.7682 5.00715 11.6922L11.9535 4.75398C12.1119 4.6369 12.3072 4.58089 12.5036 4.59624C12.7 4.61159 12.8842 4.69727 13.0225 4.83754C13.1608 4.97781 13.2438 5.16326 13.2564 5.35984C13.2689 5.55641 13.2101 5.75091 13.0908 5.90762L6.16897 12.854C6.09291 12.9307 6.00242 12.9915 5.90272 13.0331C5.80301 13.0746 5.69607 13.096 5.58806 13.096C5.48005 13.096 5.37311 13.0746 5.27341 13.0331C5.17371 12.9915 5.08321 12.9307 5.00715 12.854Z" fill="#F96F90"/>
<path d="M4.672 4.672C4.8253 4.51962 5.03267 4.43408 5.24882 4.43408C5.46497 4.43408 5.67234 4.51962 5.82564 4.672L12.772 11.6102C12.9261 11.7642 13.0126 11.9732 13.0126 12.1911C13.0126 12.409 12.9261 12.6179 12.772 12.772C12.6179 12.9261 12.409 13.0126 12.1911 13.0126C11.9732 13.0126 11.7642 12.9261 11.6102 12.772L4.672 5.82564C4.51962 5.67234 4.43408 5.46497 4.43408 5.24882C4.43408 5.03267 4.51962 4.8253 4.672 4.672Z" fill="#F96F90"/>
</svg>
