<svg width="18" height="18" viewBox="0 0 18 18" fill="none" xmlns="http://www.w3.org/2000/svg">
<path fill-rule="evenodd" clip-rule="evenodd" d="M13.9664 5.95592C14.1016 6.11484 14.1709 6.31939 14.1603 6.52774C14.1496 6.73609 14.0598 6.93251 13.9091 7.07683L7.90369 12.6977C7.71145 12.8641 7.46174 12.9487 7.20794 12.9334C6.95414 12.9182 6.71639 12.8042 6.54551 12.6159L4.09096 10.4232C3.92822 10.2789 3.82946 10.0758 3.81642 9.85873C3.80338 9.64161 3.87712 9.42821 4.02142 9.26546C4.16572 9.10272 4.36876 9.00396 4.58588 8.99092C4.80299 8.97787 5.0164 9.05161 5.17915 9.19592L7.36369 11.045L12.8291 5.89046C12.9901 5.75145 13.1988 5.68054 13.411 5.69276C13.6233 5.70498 13.8225 5.79936 13.9664 5.95592Z" fill="#31C03F"/>
<path fill-rule="evenodd" clip-rule="evenodd" d="M9 1.63637C7.54361 1.63637 6.11993 2.06824 4.90898 2.87736C3.69804 3.68649 2.75422 4.83653 2.19689 6.18206C1.63955 7.52759 1.49373 9.00817 1.77785 10.4366C2.06198 11.865 2.7633 13.1771 3.79312 14.2069C4.82295 15.2367 6.13502 15.938 7.56343 16.2221C8.99183 16.5063 10.4724 16.3605 11.8179 15.8031C13.1635 15.2458 14.3135 14.302 15.1226 13.091C15.9318 11.8801 16.3636 10.4564 16.3636 9C16.3636 7.04705 15.5878 5.17408 14.2069 3.79313C12.8259 2.41218 10.953 1.63637 9 1.63637ZM0 9C0 7.21997 0.527841 5.47991 1.51677 3.99987C2.50571 2.51983 3.91131 1.36628 5.55585 0.685088C7.20038 0.00389959 9.00998 -0.17433 10.7558 0.172936C12.5016 0.520203 14.1053 1.37737 15.364 2.63604C16.6226 3.89472 17.4798 5.49836 17.8271 7.24419C18.1743 8.99002 17.9961 10.7996 17.3149 12.4442C16.6337 14.0887 15.4802 15.4943 14.0001 16.4832C12.5201 17.4722 10.78 18 9 18C6.61305 18 4.32387 17.0518 2.63604 15.364C0.948212 13.6761 0 11.387 0 9Z" fill="#31C03F"/>
</svg>
