<svg xmlns="http://www.w3.org/2000/svg" width="18" height="18" viewBox="0 0 18 18"><defs><style>.cls-1{fill:#ababab;}.cls-2{fill:#cacaca;}</style></defs><path class="cls-1" d="M8,10a2.07,2.07,0,0,1,0-.81,2.94,2.94,0,0,1,.29-.68,4,4,0,0,1,.4-.57l.44-.49A3.47,3.47,0,0,0,9.49,7a.91.91,0,0,0,.14-.48.75.75,0,0,0-.25-.61.9.9,0,0,0-.62-.21,1.25,1.25,0,0,0-.65.17,3,3,0,0,0-.53.43l-1.05-1A3.58,3.58,0,0,1,7.6,4.46,3,3,0,0,1,9,4.13a3.4,3.4,0,0,1,1,.13,2.09,2.09,0,0,1,.78.4,1.78,1.78,0,0,1,.52.7,2.31,2.31,0,0,1,.19,1,1.79,1.79,0,0,1-.14.73,2.74,2.74,0,0,1-.36.59,6.45,6.45,0,0,1-.45.53,6.37,6.37,0,0,0-.44.52,2.53,2.53,0,0,0-.31.59,1.47,1.47,0,0,0-.08.69Zm.83,3.16A1.09,1.09,0,0,1,8,12.82,1.22,1.22,0,0,1,7.68,12,1.19,1.19,0,0,1,8,11.1a1.13,1.13,0,0,1,1.64,0A1.16,1.16,0,0,1,10,12a1.19,1.19,0,0,1-.34.86A1.09,1.09,0,0,1,8.83,13.16Z"/><path class="cls-2" d="M9,1.64a7.36,7.36,0,1,0,5.21,2.16A7.36,7.36,0,0,0,9,1.64ZM0,9a9,9,0,1,1,2.64,6.36A9,9,0,0,1,0,9Z"/></svg>