<svg width="98" height="98" viewBox="0 0 98 98" fill="none" xmlns="http://www.w3.org/2000/svg">
<circle cx="49" cy="49" r="49" fill="#60DD65" fill-opacity="0.18"/>
<path fill-rule="evenodd" clip-rule="evenodd" d="M38.8462 68H55.3476H61.6895C63.093 68 64.2308 66.8733 64.2308 65.4615C64.2308 64.0596 63.0949 62.9231 61.6895 62.9231H59.1538V61.2308H65.0886C66.4841 61.2308 67.6154 60.104 67.6154 58.6923C67.6154 57.2904 66.4919 56.1538 65.0886 56.1538H60.8462V54.4615H66.7809C68.1764 54.4615 69.3077 53.3348 69.3077 51.9231C69.3077 50.5211 68.1842 49.3846 66.7809 49.3846H62.5385V47.6923H68.4732C69.8687 47.6923 71 46.5656 71 45.1538C71 43.7519 69.8765 42.6154 68.4732 42.6154H56.2769C58.3089 33.3077 57.7179 24 52.3846 24C47.5263 24 50.5865 31.3213 47.9357 36.356C45.2849 41.3907 39.6923 42.6154 39.6923 42.6154H38.8462V68ZM30.3811 42.6154C28.5138 42.6154 27 44.1273 27 45.9863V64.6291C27 66.4908 28.5201 68 30.3811 68H37.1538V42.6154H30.3811ZM32.0769 64.6154C33.0116 64.6154 33.7692 63.8577 33.7692 62.9231C33.7692 61.9884 33.0116 61.2308 32.0769 61.2308C31.1423 61.2308 30.3846 61.9884 30.3846 62.9231C30.3846 63.8577 31.1423 64.6154 32.0769 64.6154Z" fill="#60DD65"/>
</svg>
