<svg width="93" height="93" viewBox="0 0 93 93" fill="none" xmlns="http://www.w3.org/2000/svg">
<path d="M46.5051 93H46.5014C20.8617 93 0.0018552 72.1402 0 46.4995C0 20.8598 20.8589 0 46.4995 0C72.1393 0 92.9981 20.8598 92.9981 46.4995C92.9981 72.1402 72.1421 93 46.5051 93ZM46.4995 3.71039C22.9052 3.71039 3.71039 22.9061 3.71039 46.4995C3.71225 70.0939 22.9079 89.2896 46.5014 89.2896H46.5051C70.0958 89.2896 89.2878 70.0948 89.2878 46.4995C89.2878 22.9061 70.093 3.71039 46.4995 3.71039Z" fill="#9A7FA8"/>
<path d="M46.5042 79.4283H46.5014C28.3446 79.4283 13.5717 64.6554 13.5698 46.4986C13.5698 28.3418 28.3418 13.5698 46.4995 13.5698C64.6573 13.5698 79.4293 28.3418 79.4293 46.4986C79.4293 64.6554 64.6591 79.4283 46.5042 79.4283ZM46.4995 17.2802C30.3881 17.2802 17.2802 30.3872 17.2802 46.4986C17.2821 62.611 30.3909 75.7179 46.5014 75.7179H46.5042C62.6128 75.7179 75.7189 62.6101 75.7189 46.4986C75.7189 30.3872 62.611 17.2802 46.4995 17.2802Z" fill="#9A7FA8"/>
<path d="M46.4997 52.2811C44.9562 52.2811 43.5045 51.6819 42.4127 50.5929C40.1559 48.3314 40.1568 44.6618 42.4109 42.4096C43.5036 41.3169 44.9553 40.7158 46.4997 40.7158C48.0442 40.7158 49.4959 41.3169 50.5886 42.4105C52.8426 44.6702 52.8408 48.3397 50.5867 50.591C49.4949 51.6819 48.0432 52.2811 46.4997 52.2811ZM46.4997 44.4262C45.9459 44.4262 45.4265 44.6414 45.0341 45.0338C44.2262 45.8417 44.2271 47.158 45.036 47.9687C45.8124 48.7442 47.1815 48.7488 47.9644 47.9659C48.7723 47.1589 48.7714 45.8427 47.9635 45.0319C47.573 44.6423 47.0535 44.4262 46.4997 44.4262Z" fill="#9A7FA8"/>
<path d="M49.2807 46C48.7918 46 48.3038 45.8138 47.9304 45.4404C47.1846 44.6946 47.1846 43.4857 47.9304 42.7399L61.1112 29.5593C61.857 28.8136 63.066 28.8136 63.8117 29.5593C64.5575 30.3051 64.5575 31.514 63.8117 32.2598L50.631 45.4404C50.2585 45.8138 49.7696 46 49.2807 46Z" fill="#9A7FA8"/>
<path d="M43.5467 46C43.0796 46 42.6134 45.8084 42.2567 45.4243L32.9055 35.3541C32.193 34.5869 32.193 33.3433 32.9055 32.575C33.618 31.8088 34.773 31.8078 35.4855 32.575L44.8367 42.6462C45.5492 43.4134 45.5492 44.6571 44.8367 45.4243C44.48 45.8094 44.0129 46 43.5467 46Z" fill="#9A7FA8"/>
</svg>
