<svg width="363" height="334" viewBox="0 0 363 334" fill="none" xmlns="http://www.w3.org/2000/svg">
<g filter="url(#filter0_f)">
<path d="M18 77.4278L181.529 176.794L345.155 77.4278L181.529 54.8135L280.156 116.978L235.842 261.769L181.529 315.906V54.8135L82.9997 116.978L127.313 261.769" stroke="white" stroke-width="5" stroke-miterlimit="10" stroke-linecap="round" stroke-linejoin="round"/>
<path d="M345.155 77.4238L263.293 18L181.529 54.8095L99.8624 18L18 77.4238V152.609L181.431 315.804V316L181.529 315.902L181.725 316V315.804L345.155 152.609V77.4238Z" stroke="white" stroke-width="5" stroke-miterlimit="10" stroke-linecap="round" stroke-linejoin="round"/>
</g>
<path d="M18 77.4278L181.529 176.794L345.155 77.4278L181.529 54.8135L280.156 116.978L235.842 261.769L181.529 315.906V54.8135L82.9997 116.978L127.313 261.769" stroke="white" stroke-width="5" stroke-miterlimit="10" stroke-linecap="round" stroke-linejoin="round"/>
<path d="M345.155 77.4238L263.293 18L181.529 54.8095L99.8624 18L18 77.4238V152.609L181.431 315.804V316L181.529 315.902L181.725 316V315.804L345.155 152.609V77.4238Z" stroke="white" stroke-width="5" stroke-miterlimit="10" stroke-linecap="round" stroke-linejoin="round"/>
<defs>
<filter id="filter0_f" x="0.499756" y="0.5" width="362.156" height="333" filterUnits="userSpaceOnUse" color-interpolation-filters="sRGB">
<feFlood flood-opacity="0" result="BackgroundImageFix"/>
<feBlend mode="normal" in="SourceGraphic" in2="BackgroundImageFix" result="shape"/>
<feGaussianBlur stdDeviation="7.5" result="effect1_foregroundBlur"/>
</filter>
</defs>
</svg>
