<svg width="55" height="56" viewBox="0 0 55 56" fill="none" xmlns="http://www.w3.org/2000/svg">
<path d="M32.047 6.03626C31.7323 7.01495 31.1151 7.86851 30.2842 8.47403C29.4534 9.07956 28.4519 9.40581 27.4238 9.40581C26.3957 9.40581 25.3942 9.07956 24.5634 8.47403C23.7326 7.86851 23.1153 7.01495 22.8006 6.03626L20.7976 0L0 10.3988V28.5625H8.23126V56H46.6438V28.5625H54.8751V10.3988L34.0774 0L32.047 6.03626ZM37.2602 7.76482L49.3876 13.8011V23.075H41.1563V50.5125H13.7188V23.075H5.48751V13.8011L17.6149 7.73738C18.297 9.80388 19.6135 11.6026 21.3771 12.8776C23.1406 14.1526 25.2614 14.8389 27.4375 14.8389C29.6137 14.8389 31.7344 14.1526 33.498 12.8776C35.2615 11.6026 36.578 9.80388 37.2602 7.73738V7.76482Z" fill="#95669E"/>
<path d="M38.4124 23.0742H30.1812V28.5617H38.4124V23.0742Z" fill="#95669E"/>
</svg>
