<svg width="62" height="62" viewBox="0 0 62 62" fill="none" xmlns="http://www.w3.org/2000/svg">
<g clip-path="url(#clip0)">
<path fill-rule="evenodd" clip-rule="evenodd" d="M8.4134 29.4208C16.0431 29.1505 23.7944 32.1538 30.3899 36.0536C31.7552 35.2352 33.1576 34.4453 34.591 33.7087C33.5408 32.625 32.4979 31.5772 31.3956 30.605C22.5482 22.8005 16.1324 19.4165 5.99788 20.2684L9.48228 27.5286C9.10408 28.1374 8.74696 28.7698 8.4134 29.4208ZM18.2367 19.0383C22.9921 20.8524 27.5342 23.852 31.3819 27.0127C35.2383 23.8631 39.6899 21.0731 44.3474 19.3123C36.337 14.3759 26.3562 14.3052 18.2367 19.0383ZM56.4088 20.6081C47.3345 19.8406 41.6466 22.302 33.4874 28.8169C34.7708 29.9726 35.9736 31.2101 37.1702 32.4539C42.3336 30.0966 47.8218 28.5268 53.3386 28.6607L52.9083 27.9229L56.4088 20.6081ZM49.1238 31.6875C43.9692 32.3857 38.595 34.5408 33.0658 37.7177C40.5592 42.5698 46.4082 48.2105 52.7707 54.4019C55.5545 49.9019 56.761 44.9431 56.5254 39.6707L62 33.4335C57.3822 31.7111 54.4707 30.9646 49.1238 31.6875ZM51.1587 56.7107C44.4701 50.1896 38.3644 44.3219 30.3924 39.3222C22.3919 34.3039 14.9532 31.9083 8.39232 32.1972C5.25264 32.3299 2.92888 33.1743 0 34.2667C1.96168 36.283 3.84152 38.2248 5.62836 40.4085C5.29852 54.8557 16.9322 66.6382 31.3881 66.4497C38.8219 66.353 46.1912 63.0484 51.1587 56.7107Z" fill="#95669E"/>
</g>
<defs>
<clipPath id="clip0">
<rect width="62" height="62" fill="white"/>
</clipPath>
</defs>
</svg>
