<svg width="59" height="59" viewBox="0 0 59 59" fill="none" xmlns="http://www.w3.org/2000/svg">
<path d="M33.9004 10.5954C32.4385 8.79656 30.6153 7.32449 28.5489 6.27432C26.4824 5.22415 24.2186 4.61926 21.9037 4.49874C19.5854 4.37468 17.267 4.73993 15.0991 5.57072C12.9313 6.40152 10.9625 7.67927 9.3209 9.3209C7.67927 10.9625 6.40152 12.9313 5.57072 15.0991C4.73993 17.267 4.37468 19.5854 4.49874 21.9037C4.6181 24.2128 5.22013 26.4712 6.26599 28.5333C7.31185 30.5954 8.77833 32.4153 10.5708 33.8758L32.1796 51.7725C34.8159 54.2386 38.3074 55.5836 41.9169 55.5234C45.5263 55.4632 48.9711 54.0026 51.5237 51.45C54.0763 48.8973 55.537 45.4526 55.5972 41.8431C55.6573 38.2337 54.3123 34.7421 51.8462 32.1058L33.9004 10.5954ZM24.2883 24.2883L22.4446 37.3175L17.995 33.6546L19.5192 23.01L15.4629 18.9537L18.9537 15.4629L23.01 19.5192L33.63 17.995L37.3175 22.4446L24.2883 24.2883Z" fill="#95669E"/>
</svg>
