<svg xmlns="http://www.w3.org/2000/svg" width="90" height="90" viewBox="0 0 100 100"><path d="M91.1781387,36.9985352c-0.0029297-0.1191406-0.0048828-0.2075195-0.0039062-0.2832031  c0-11.6796875-9.5019531-21.1811523-21.1816406-21.1811523c-4.5908203,0-8.9589806,1.4438477-12.6308556,4.1757812  c-0.0233154,0.017395-0.1295166,0.0955544-0.1640625,0.1191406c-3.9089813,2.6689377-1.3710938,8.8286133,0.5341797,11.7490234  c1.4423828,2.2124023,3.0117188,3.5898438,4.5869141,4.5458984c-0.0654297,0.0532227-0.1318359,0.1069336-0.1992188,0.1625977  l-0.2197266,0.1787109c-0.6777344,0.5483398-1.1083984,1.2368164-1.4873047,1.8442383  c-0.1289062,0.2050781-0.2568359,0.4106445-0.3955078,0.609375c-0.0019531,0.003418-0.0039062,0.0063477-0.0058594,0.0092773  c-0.2636719-0.234375-0.6513672-0.7045898-0.9267578-1.0400391c-0.3349609-0.4057617-0.7138672-0.8662109-1.1308594-1.2890625  c-4.921875-4.9873047-10.2314453-6.7514648-17.2236328-5.715332c-5.8789062,0.8710938-11.5488281,5.1430664-14.109375,10.6303711  c-0.9208984,1.9760742-1.4013672,3.6235352-1.8105469,5.5766602c-0.0283203-0.0214844-0.0566406-0.0424805-0.0859375-0.0634766  c-1.2705078-0.9238281-2.9814453-0.875-4.2578125,0.1220703c-1.0585938,0.8276367-1.890625,2.4526367-1.0498047,4.5302734  c0.359375,0.8886719,1.140625,1.5908203,2.1425781,1.9267578c1.0283203,0.3447266,2.1191406,0.2431641,2.9902344-0.2783203  c0.2080078-0.125,0.4228516-0.2900391,0.6337891-0.4902344c0.1230469,0.5283203,0.2626953,1.1201172,0.4355469,1.7900391  c2.0849609,8.078125,8.3535156,12.1572266,18.6572266,12.1572266c1.1689453,0,2.390625-0.0527344,3.6630859-0.1572266  c1.8349609-0.1513672,2.9287109-0.5507812,3.5449219-1.2949219c0.6464844-0.78125,0.5517578-1.6669922,0.4902344-2.2539062  c-0.0234375-0.2167969-0.0517578-0.4863281-0.0166016-0.5888672c0.1142578-0.3291016,0.359375-0.5957031,0.6572266-0.7119141  c0.2695312-0.1074219,0.5488281-0.0839844,0.8320312,0.0673828c0.2792969,0.1494141,0.5429688,0.5966797,0.8496094,1.1142578  c0.703125,1.1875,1.6660156,2.8144531,4.2226562,3.3017578c2.5947266,0.4960938,4.9746094,0.2529297,7.1591759-0.0810547  c2.2978516-0.3544922,4.5673828-2.3242188,4.3876953-5.0078125c-0.1103516-1.6318359-1.5390625-2.3691406-2.5820312-2.9072266  c-0.359375-0.1855469-0.8525391-0.4394531-0.9736328-0.59375c-0.3994141-0.5087891-0.4609375-0.9882812-0.1933594-1.5107422  c0.3964844-0.7724609,1.4404297-1.4003906,2.2167969-1.3574219c2.4296875,0.1025391,8.8710938,0.3896484,9.953125-5.0336914  c0.5136719-2.5717773-0.2021484-3.6181641-1.03125-4.8300781c-0.2666016-0.390625-0.5429688-0.7944336-0.828125-1.3164062  c-0.9580078-1.7607422-2.2714844-4.1723633-4.46875-5.6503906c-1.5664062-1.0532227-3.1757812-1.628418-4.7314453-2.1845703  c-0.4697266-0.1679688-0.9355469-0.3344727-1.3964844-0.5126953c1.1171875-3.8330078,0.6904297-7.5839844-1.3134766-11.7011719  c-0.6379395-1.3119507-1.7477989-2.8032837-3.1552696-3.6652222c2.5971642-1.3084717,5.4591026-1.9973755,8.4306602-1.9973755  c10.3681641,0,18.8027344,8.4350586,18.8027344,18.7836914c-0.0009766,0.0756836,0.0009766,0.1953125,0.0048828,0.3569336  c0.1689453,7.394043-2.3916016,13.7373047-4.5693359,17.7568359c-6.1386719,11.3320312-17.6542969,20.4775391-34.2304649,27.1855469  c-16.578125-6.7089844-28.0947266-15.8564453-34.2333984-27.1904297c-2.1767578-4.0195312-4.7363281-10.362793-4.5664062-17.753418  c0.0039062-0.1601562,0.0058594-0.2792969,0.0048828-0.3359375c0-10.3681641,8.4345713-18.8032227,18.8027344-18.8032227  c4.2871094,0,8.4814453,1.480957,11.8085938,4.1699219c0.5107422,0.4125977,1.2587891,0.3339844,1.671875-0.1772461  c0.4130859-0.5107422,0.3330078-1.2597656-0.1777344-1.6723633c-3.7480469-3.0297852-8.4726562-4.6982422-13.3027344-4.6982422  c-11.6796875,0-21.1816406,9.5014648-21.1816406,21.2001953c0.0009766,0.0556641-0.0009766,0.1435547-0.0039062,0.262207  C8.6410322,44.909668,11.3607588,51.6640625,13.6752119,55.9375c6.4648447,11.9365234,18.5380859,21.5068359,35.8837891,28.4443359  c0.1416016,0.0566406,0.2910156,0.0849609,0.4414062,0.0849609s0.2998047-0.0283203,0.4414062-0.0849609  C67.7855606,77.4453125,79.8568497,67.8759766,86.32267,55.9423828  C88.6371231,51.6689453,91.3588028,44.9145508,91.1781387,36.9985352z M23.3256035,51.2880859  c-0.2675781,0.1611328-0.6455078,0.1845703-1.0107422,0.0625c-0.3320312-0.1113281-0.5976562-0.3271484-0.6933594-0.5634766  c-0.2978516-0.734375-0.1845703-1.3774414,0.3095703-1.7641602c0.2070312-0.1616211,0.4853516-0.2739258,0.7734375-0.2739258  c0.2099609,0,0.4248047,0.0595703,0.6210938,0.2026367c0.4287109,0.3110352,0.7197266,0.5991211,0.9414062,0.9536133  C24.060955,50.6416016,23.5590019,51.1484375,23.3256035,51.2880859z M66.6273575,38.0283203  c1.4833984,0.5302734,2.8837891,1.03125,4.203125,1.918457c1.7148438,1.152832,2.8203125,3.1831055,3.7089844,4.8149414  c0.3417969,0.6274414,0.6669922,1.1020508,0.953125,1.5209961c0.7128906,1.0419922,0.9794922,1.4321289,0.6621094,3.0214844  c-0.4794922,2.3999023-2.7314453,3.3354492-7.515625,3.1225586c-1.7246094-0.0751953-3.625,1.0625-4.4384766,2.6484375  c-0.692379,1.3486328-0.5312462,2.8320312,0.4404297,4.0673828c0.4414062,0.5605469,1.1074219,0.9042969,1.7529297,1.2373047  c0.5400391,0.2783203,1.2792969,0.6591797,1.2988281,0.9521484c0.0917969,1.3759766-1.3212891,2.3349609-2.3769531,2.4970703  c-2.2792931,0.3505859-4.2314415,0.5009766-6.3515587,0.0966797c-1.5019531-0.2861328-2.0205078-1.1630859-2.6210938-2.1777344  C55.895916,60.9931641,55.4340019,60.2128906,54.5697441,59.75c-0.8955078-0.4824219-1.8974609-0.5478516-2.8222656-0.1865234  c-0.9521484,0.3720703-1.6943359,1.15625-2.0380859,2.1503906c-0.2080078,0.6015625-0.1484375,1.1640625-0.1005859,1.6162109  c0.0185547,0.1748047,0.046875,0.4404297,0.0439453,0.484375c-0.0029297,0.0039062-0.3017578,0.3105469-1.9091797,0.4423828  c-11.1708984,0.921875-17.8339844-2.5175781-19.8222656-10.2226562c-0.1865234-0.7236328-0.3330078-1.3525391-0.4619141-1.9072266  c-0.2294922-0.9902344-0.4208984-1.8139648-0.7080078-2.5380859c0.5175781-2.8549805,0.9140625-4.6875,2.0253906-7.0688477  c2.2011719-4.71875,7.2597656-8.5366211,12.3017578-9.2836914c6.2441406-0.9243164,10.7861328,0.5800781,15.1816406,5.0336914  c0.3427734,0.3466797,0.6708984,0.7446289,0.9873047,1.1298828c0.875,1.0629883,1.6513672,2.0561523,2.90625,2.019043  c0.6953125-0.027832,1.3066406-0.4106445,1.8144531-1.1386719c0.1611328-0.2319336,0.3115234-0.4711914,0.4609375-0.7104492  c0.3212891-0.5141602,0.5986328-0.9580078,0.9677734-1.2563477l0.2265625-0.1845703  c0.3945274-0.3222656,0.6669884-0.5449219,1.0927696-0.8168945C65.3646622,37.5771484,66.0052872,37.8061523,66.6273575,38.0283203z   M63.8412285,34.2626953c-1.4404297-0.8183594-2.8183594-1.9921875-4.1171875-3.9838867  c-1.6318359-2.5009766-3.4023438-7.0117188-1.2099609-8.4682617c0.2392578-0.1591797,0.4804688-0.2373047,0.7412109-0.2373047  c0.1279297,0,0.2617188,0.019043,0.4003906,0.0571289c0.9990234,0.2719727,2.2001953,1.4990234,2.9228516,2.9848633  C64.2425919,28.0336914,64.6547012,31.1352539,63.8412285,34.2626953z" fill="#95669E" /></svg>