<svg width="51" height="52" viewBox="0 0 51 52" fill="none" xmlns="http://www.w3.org/2000/svg">
<path fill-rule="evenodd" clip-rule="evenodd" d="M18.0634 3.21734C13.9095 -1.0214 7.25944 -1.09752 3.11565 3.14241C-1.03855 7.36945 -1.03855 14.2421 3.11565 18.4704C5.18731 20.5835 7.87543 21.6465 10.5842 21.6465H2.34051C1.0448 21.6465 0.00318617 22.7093 0.00318617 24.0315V29.0176C0.00318617 30.3403 1.04492 31.403 2.34051 31.403H4.25268V47.6639C4.25268 50.0595 6.15444 52 8.50206 52H42.4983C44.8461 52 46.7475 50.0595 46.7475 47.6639V31.4029H48.6598C49.9554 31.4029 50.9969 30.3401 50.9969 29.0175V24.0314C50.9969 22.7092 49.9554 21.6463 48.6598 21.6463H40.4046C43.1247 21.6463 45.8129 20.5833 47.8837 18.4702C52.0387 14.242 52.0387 7.36933 47.8837 3.14229C43.7408 -1.09764 37.0908 -1.02152 32.9367 3.21722L25.5 10.8058L18.0634 3.21734ZM31.003 12.6923L36.6124 6.96831C38.695 4.85401 42.0519 4.85401 44.1345 6.96831C46.2061 9.09299 46.2061 12.5188 44.1345 14.6436C43.0934 15.6947 41.7325 16.2262 40.3735 16.2262H32.6504C31.4809 16.2262 30.5253 15.2502 30.5253 14.058C30.5254 13.537 30.7059 13.0714 31.003 12.6923ZM14.3878 6.96831L19.8273 12.5188L19.8376 12.5293C20.2193 12.9305 20.4539 13.4618 20.4539 14.058C20.4539 15.2502 19.4973 16.2262 18.3293 16.2262H10.6269C9.26667 16.2262 7.90665 15.6947 6.86608 14.6436C4.79419 12.5188 4.79419 9.09299 6.86608 6.96831C8.94815 4.85401 12.3055 4.85401 14.3878 6.96831ZM20.1882 21.6463H30.8117V44.1944C30.8117 45.517 29.7704 46.5795 28.4748 46.5795H22.5257C21.23 46.5795 20.1883 45.517 20.1883 44.1944V21.6463H20.1882Z" fill="#95669E"/>
</svg>
