<svg width="71" height="71" viewBox="0 0 71 71" fill="none" xmlns="http://www.w3.org/2000/svg">
<g clip-path="url(#clip0)">
<path fill-rule="evenodd" clip-rule="evenodd" d="M34.926 76.4635C22.8115 76.4635 12.9938 66.6454 12.9938 54.5313C12.9938 51.8086 13.3803 49.2032 14.2838 46.7905C21.7796 46.7905 28.3853 50.545 32.3458 56.2724V48.6239L38.7966 50.3225V56.2724C40.0447 54.4676 41.5553 52.8587 43.2737 51.5015L58.1309 55.4138C57.668 67.1185 48.0356 76.4635 36.2162 76.4635H34.926ZM56.8645 46.8076C56.8624 46.8019 56.8603 46.7962 56.8581 46.7905C56.8387 46.7905 56.8193 46.7905 56.7999 46.7906L56.8645 46.8076ZM45.0672 43.701C49.0879 40.7689 51.6979 36.0234 51.6979 30.6637V17.0922C51.6979 15.6847 50.536 14.5369 49.1172 14.5369C48.3939 14.5369 47.7363 14.8343 47.2733 15.3107L42.3695 20.1625L37.5064 15.3107C36.4743 14.2786 34.8102 14.2786 33.791 15.3107L28.8495 20.2393L23.8698 15.3107C23.4049 14.8344 22.7473 14.5369 22.0245 14.5369C20.6054 14.5369 19.4444 15.6847 19.4444 17.0922V30.6637C19.4444 33.0426 19.9586 35.3004 20.882 37.3324L45.0672 43.701Z" fill="#95669E"/>
<line x1="4.13566" y1="37.0597" x2="67.6816" y2="53.7931" stroke="#95669E" stroke-width="3"/>
</g>
<defs>
<clipPath id="clip0">
<rect width="71" height="71" fill="white"/>
</clipPath>
</defs>
</svg>
