<svg width="66" height="57" viewBox="0 0 66 57" fill="none" xmlns="http://www.w3.org/2000/svg">
<path fill-rule="evenodd" clip-rule="evenodd" d="M31.926 62.4635C19.8115 62.4635 9.99377 52.6454 9.99377 40.5313C9.99377 37.8086 10.3803 35.2032 11.2838 32.7905C18.7796 32.7905 25.3853 36.545 29.3458 42.2724V34.6239L35.7966 36.3225V42.2724C37.0447 40.4676 38.5553 38.8587 40.2737 37.5015L55.1309 41.4138C54.668 53.1185 45.0356 62.4635 33.2162 62.4635H31.926ZM53.8645 32.8076C53.8624 32.8019 53.8603 32.7962 53.8581 32.7905C53.8387 32.7905 53.8193 32.7905 53.7999 32.7906L53.8645 32.8076ZM42.0672 29.701C46.0879 26.7689 48.6979 22.0234 48.6979 16.6637V3.0922C48.6979 1.68469 47.536 0.536905 46.1172 0.536905C45.3939 0.536905 44.7363 0.834253 44.2733 1.31066L39.3695 6.16252L34.5064 1.31066C33.4743 0.278607 31.8102 0.278607 30.791 1.31066L25.8495 6.23934L20.8698 1.31066C20.4049 0.834395 19.7473 0.536905 19.0245 0.536905C17.6054 0.536905 16.4444 1.68469 16.4444 3.0922V16.6637C16.4444 19.0426 16.9586 21.3004 17.882 23.3324L42.0672 29.701Z" fill="#95669E"/>
<line x1="1.13566" y1="23.0597" x2="64.6816" y2="39.7931" stroke="#95669E" stroke-width="3"/>
</svg>
