<svg width="48" height="68" viewBox="0 0 48 68" fill="none" xmlns="http://www.w3.org/2000/svg">
<path d="M24.0004 19.2101C29.3235 19.2101 33.6389 14.9097 33.6389 9.60505C33.6389 4.3004 29.3235 0 24.0004 0C18.6771 0 14.3621 4.3004 14.3621 9.60505C14.3621 14.9097 18.6771 19.2101 24.0004 19.2101Z" fill="#95669E"/>
<path d="M23.9847 39.2885H13.7959V31.9572L6.00376 39.7735C2.48349 43.2815 -2.28803 38.7834 1.23804 35.2692L14.1401 22.3878C15.1866 21.3524 16.3319 20.6936 18.1494 20.6936H23.9847H23.9944H29.7187C31.5362 20.6936 32.7621 21.3323 33.8391 22.3878L46.8723 35.3955C50.2292 38.7407 45.3288 43.2815 42.109 39.9019L34.1126 31.917V39.2885H23.9944H23.9847Z" fill="#95669E"/>
<path d="M34.0702 43.0906L26.4129 50.7217L32.0348 56.3133L26.2742 62.0537C22.8744 65.4419 27.5647 70.2877 31.0806 66.7841L40.191 57.3444C42.1463 55.3561 42.6869 51.6837 40.5908 49.5948C40.5837 49.5878 34.0702 43.0906 34.0702 43.0906Z" fill="#95669E"/>
<path d="M13.7974 43.0906L21.4547 50.7217L15.8328 56.3133L21.5934 62.0537C24.9932 65.4419 20.303 70.2877 16.787 66.7841L7.67663 57.3444C5.72138 55.3561 5.18073 51.6837 7.2769 49.5948C7.284 49.5878 13.7974 43.0906 13.7974 43.0906Z" fill="#95669E"/>
</svg>
