<svg width="71" height="71" viewBox="0 0 71 71" fill="none" xmlns="http://www.w3.org/2000/svg">
<g clip-path="url(#clip0)">
<path fill-rule="evenodd" clip-rule="evenodd" d="M12.9937 54.5313C12.9937 66.6454 22.8114 76.4635 34.9258 76.4635H36.216C48.3311 76.4635 58.1482 66.6452 58.1482 54.5313C58.1482 51.8086 57.7614 49.2034 56.858 46.7905C49.362 46.7905 42.7571 50.545 38.7965 56.2724V46.4682C46.163 44.9712 51.6977 38.4687 51.6977 30.6637V17.0922C51.6977 15.6847 50.5359 14.5369 49.117 14.5369C48.3938 14.5369 47.7362 14.8343 47.2732 15.3107L42.3693 20.1625L37.5063 15.3107C36.4742 14.2786 34.8101 14.2786 33.7908 15.3107L28.8494 20.2393L23.8697 15.3107C23.4048 14.8344 22.7472 14.5369 22.0244 14.5369C20.6053 14.5369 19.4443 15.6847 19.4443 17.0922V30.6637C19.4443 38.4687 24.979 44.9712 32.3457 46.4682V56.2724C28.3852 50.545 21.7795 46.7905 14.2837 46.7905C13.3802 49.2032 12.9937 51.8086 12.9937 54.5313Z" fill="#95669E"/>
</g>
<defs>
<clipPath id="clip0">
<rect width="71" height="71" fill="white"/>
</clipPath>
</defs>
</svg>
